#!OML:ASF H:\BabyWalks\Project 1\Capture day 1\Session 1\baby.ASF
:FULLY-SPECIFIED
:DEGREES
830
root 34.9355 16.9654 1.76437 -543.219 69.4493 -545.453
lowerback 25.4222 -3.46335 -4.29165
upperback 8.2361 -4.55708 0.937703
thorax -4.49879 -1.90934 4.72254
lowerneck -0.909066 -3.73026 1.36144
upperneck -12.5692 -4.40551 3.31409
head -3.88163 -2.26935 0.986923
rclavicle -2.87244e-014 -1.37161e-014
rhumerus -48.2036 9.36588 -80.5716
rradius 42.0803
rwrist 2.15797
rhand -2.85737 -17.2914
rfingers 7.12502
rthumb 22.8508 -45.9576
lclavicle -2.87244e-014 -1.37161e-014
lhumerus 7.42195 -20.0509 63.6603
lradius 74.817
lwrist -0.814558
lhand -5.22735 2.69345
lfingers 7.12502
lthumb 20.575 31.6231
rfemur -29.2827 1.87523 11.7735
rtibia 38.0686
rfoot -10.2658 -2.21521
rtoes -6.64335
lfemur -18.032 -14.9362 -13.3807
ltibia 38.9538
lfoot -29.8454 -22.3903
ltoes 0.20561
831
root 35.0413 16.95 1.80263 -543.75 69.53 -546.11
lowerback 25.2092 -3.40511 -4.32085
upperback 8.26977 -4.47713 1.01678
thorax -4.3561 -1.87853 4.78815
lowerneck -1.00369 -3.74671 1.43976
upperneck -12.5949 -4.46803 2.9221
head -3.88329 -2.28756 0.844288
rclavicle 8.54774e-015 9.93923e-016
rhumerus -47.3927 9.22452 -80.2658
rradius 41.5706
rwrist 2.88992
rhand -2.47412 -17.2697
rfingers 7.12502
rthumb 23.2186 -45.8901
lclavicle 8.54774e-015 9.93923e-016
lhumerus 7.079 -19.9816 63.9278
lradius 74.6783
lwrist -0.845409
lhand -5.59245 2.76427
lfingers 7.12502
lthumb 20.2241 31.7314
rfemur -29.5993 2.07165 11.8114
rtibia 39.1165
rfoot -10.8583 -2.14291
rtoes -6.02999
lfemur -17.7646 -14.8232 -13.4405
ltibia 39.0307
lfoot -30.2129 -22.2938
ltoes -0.0296257
832
root 35.1473 16.9388 1.83947 -544.318 69.6884 -546.812
lowerback 24.9965 -3.3369 -4.36097
upperback 8.28715 -4.39141 1.07807
thorax -4.23305 -1.84487 4.84025
lowerneck -1.13084 -3.74676 1.54739
upperneck -12.524 -4.51634 2.49613
head -3.8466 -2.29892 0.682605
rclavicle 9.41742e-015 1.61513e-015
rhumerus -46.5343 8.9922 -79.9272
rradius 41.1012
rwrist 3.6486
rhand -2.23126 -17.2862
rfingers 7.12502
rthumb 23.4516 -45.877
lclavicle 9.41742e-015 1.61513e-015
lhumerus 6.58292 -19.9029 64.2335
lradius 74.4553
lwrist -0.878088
lhand -5.94072 2.84421
lfingers 7.12502
lthumb 19.8893 31.8465
rfemur -29.856 2.37016 11.8351
rtibia 40.0149
rfoot -11.4788 -2.11555
rtoes -5.62475
lfemur -17.462 -14.6647 -13.5156
ltibia 39.0622
lfoot -30.4902 -22.1887
ltoes -0.234871
833
root 35.2531 16.9314 1.8746 -544.891 69.9057 -547.515
lowerback 24.7977 -3.27061 -4.39186
upperback 8.28636 -4.31007 1.12766
thorax -4.13845 -1.81268 4.87767
lowerneck -1.27174 -3.7278 1.68399
upperneck -12.372 -4.54572 2.03103
head -3.7811 -2.30137 0.501413
rclavicle -7.74018e-014 5.14231e-014
rhumerus -45.653 8.67721 -79.5678
rradius 40.6984
rwrist 4.408
rhand -2.1785 -17.3442
rfingers 7.12502
rthumb 23.5022 -45.9285
lclavicle -7.74018e-014 5.14231e-014
lhumerus 5.93178 -19.8104 64.5834
lradius 74.1389
lwrist -0.929765
lhand -6.24589 2.9226
lfingers 7.12502
lthumb 19.596 31.955
rfemur -30.043 2.73997 11.8627
rtibia 40.7695
rfoot -12.1136 -2.13812
rtoes -5.44379
lfemur -17.1313 -14.475 -13.5896
ltibia 39.0677
lfoot -30.6645 -22.0967
ltoes -0.363684
834
root 35.3584 16.9271 1.90796 -545.453 70.1689 -548.187
lowerback 24.6268 -3.21197 -4.39629
upperback 8.26677 -4.23624 1.1692
thorax -4.08056 -1.78278 4.89622
lowerneck -1.40047 -3.69248 1.83578
upperneck -12.1643 -4.55664 1.53979
head -3.7002 -2.29538 0.308836
rclavicle -3.44146e-014 5.01931e-015
rhumerus -44.7788 8.29309 -79.2049
rradius 40.3888
rwrist 5.12307
rhand -2.37577 -17.4412
rfingers 7.12502
rthumb 23.3129 -46.0497
lclavicle -3.44146e-014 5.01931e-015
lhumerus 5.12971 -19.7119 64.9781
lradius 73.7256
lwrist -0.998536
lhand -6.48828 2.98759
lfingers 7.12502
lthumb 19.3629 32.0436
rfemur -30.152 3.15897 11.9088
rtibia 41.3879
rfoot -12.7191 -2.18234
rtoes -5.34414
lfemur -16.7774 -14.2644 -13.6516
ltibia 39.0705
lfoot -30.7364 -22.0277
ltoes -0.43901
835
root 35.4633 16.9261 1.93896 -545.925 70.4693 -548.743
lowerback 24.4799 -3.16795 -4.34499
upperback 8.23312 -4.17051 1.21545
thorax -4.05351 -1.75538 4.89271
lowerneck -1.51229 -3.64164 1.99606
upperneck -11.9209 -4.54866 1.02348
head -3.6117 -2.28045 0.106979
rclavicle -2.9271e-014 2.0276e-014
rhumerus -43.9273 7.86833 -78.8517
rradius 40.1931
rwrist 5.74385
rhand -2.85637 -17.5808
rfingers 7.12502
rthumb 22.8518 -46.2469
lclavicle -2.9271e-014 2.0276e-014
lhumerus 4.18694 -19.6024 65.4248
lradius 73.218
lwrist -1.08585
lhand -6.64643 3.03634
lfingers 7.12502
lthumb 19.2108 32.1075
rfemur -30.1771 3.60229 12.0066
rtibia 41.8736
rfoot -13.2663 -2.22207
rtoes -5.21071
lfemur -16.4105 -14.0387 -13.6713
ltibia 39.094
lfoot -30.7164 -21.9922
ltoes -0.482075
836
root 35.5675 16.9281 1.96727 -546.293 70.802 -549.167
lowerback 24.361 -3.1404 -4.23135
upperback 8.18031 -4.11442 1.26775
thorax -4.06496 -1.73103 4.86557
lowerneck -1.58357 -3.57461 2.16404
upperneck -11.6632 -4.51878 0.488011
head -3.52731 -2.2553 -0.101387
rclavicle 1.21259e-014 -1.38155e-014
rhumerus -43.1272 7.43024 -78.5297
rradius 40.1256
rwrist 6.22574
rhand -3.64163 -17.7519
rfingers 7.12502
rthumb 22.0981 -46.5092
lclavicle 1.21259e-014 -1.38155e-014
lhumerus 3.10087 -19.4873 65.9236
lradius 72.6225
lwrist -1.17774
lhand -6.72629 3.06233
lfingers 7.12502
lthumb 19.134 32.1411
rfemur -30.1213 4.04796 12.1607
rtibia 42.2321
rfoot -13.7637 -2.25166
rtoes -5.08764
lfemur -16.0428 -13.7985 -13.6445
ltibia 39.1556
lfoot -30.6084 -21.9943
ltoes -0.523945
